# This file uses centimeters as units for non-parametric coordinates.

mtllib rock03.mtl
g default
v 0.839842 -0.727281 2.442109
v -1.801822 -0.727281 3.300438
v -1.801822 -0.727281 6.078049
v 0.839842 -0.727281 6.936378
v 2.472480 -0.727281 4.689244
v 1.085148 0.727281 1.349502
v -2.840954 0.727281 2.625170
v -2.840954 0.727281 6.753318
v 1.085148 0.727281 8.028986
v 3.511612 0.727281 4.689244
v 0.109704 -0.727281 4.689244
v 0.000000 0.727281 4.689244
vt 0.548284 0.007647
vt 0.373591 0.064409
vt 0.373591 0.248091
vt 0.548284 0.304853
vt 0.656250 0.156250
vt 0.375000 0.312500
vt 0.425000 0.312500
vt 0.475000 0.312500
vt 0.525000 0.312500
vt 0.575000 0.312500
vt 0.625000 0.312500
vt 0.375000 0.688440
vt 0.425000 0.688440
vt 0.475000 0.688440
vt 0.525000 0.688440
vt 0.575000 0.688440
vt 0.625000 0.688440
vt 0.548284 0.695147
vt 0.373591 0.751909
vt 0.373591 0.935591
vt 0.548284 0.992353
vt 0.656250 0.843750
vt 0.500000 0.150000
vt 0.500000 0.837500
vn -0.257638 -0.552166 -0.792928
vn -0.257638 -0.552166 -0.792928
vn -0.257638 -0.552166 -0.792928
vn -0.257638 -0.552166 -0.792928
vn -0.813691 -0.581297 -0.000000
vn -0.813691 -0.581297 -0.000000
vn -0.813691 -0.581297 -0.000000
vn -0.813691 -0.581297 -0.000000
vn -0.257638 -0.552166 0.792928
vn -0.257638 -0.552166 0.792928
vn -0.257638 -0.552166 0.792928
vn -0.257638 -0.552166 0.792928
vn 0.700445 -0.500394 0.508903
vn 0.700445 -0.500394 0.508903
vn 0.700445 -0.500394 0.508903
vn 0.700445 -0.500394 0.508903
vn 0.700445 -0.500394 -0.508903
vn 0.700445 -0.500394 -0.508903
vn 0.700445 -0.500394 -0.508903
vn 0.700445 -0.500394 -0.508903
vn 0.000000 -1.000000 0.000000
vn 0.000000 -1.000000 0.000000
vn 0.000000 -1.000000 0.000000
vn 0.000000 -1.000000 0.000000
vn 0.000000 -1.000000 0.000000
vn 0.000000 -1.000000 0.000000
vn 0.000000 1.000000 0.000000
vn 0.000000 1.000000 0.000000
vn 0.000000 1.000000 -0.000000
vn 0.000000 1.000000 0.000000
vn 0.000000 1.000000 -0.000000
vn 0.000000 1.000000 -0.000000
s off
g pCylinder3
usemtl initialShadingGroup
f 1/6/1 2/7/2 7/13/3 6/12/4
f 2/7/5 3/8/6 8/14/7 7/13/8
f 3/8/9 4/9/10 9/15/11 8/14/12
f 4/9/13 5/10/14 10/16/15 9/15/16
f 5/10/17 1/11/18 6/17/19 10/16/20
s 1
f 2/2/21 1/1/22 11/23/23
f 3/3/24 2/2/21 11/23/23
f 4/4/25 3/3/24 11/23/23
f 5/5/26 4/4/25 11/23/23
f 1/1/22 5/5/26 11/23/23
s 2
f 6/21/27 7/20/28 12/24/29
f 7/20/28 8/19/30 12/24/29
f 8/19/30 9/18/31 12/24/29
f 9/18/31 10/22/32 12/24/29
f 10/22/32 6/21/27 12/24/29
