# This file uses centimeters as units for non-parametric coordinates.

mtllib rock02.mtl
g default
v 1.580162 -2.723834 -4.437542
v -0.449099 -2.723834 -5.161384
v -1.764590 -2.723834 -3.455121
v -0.548346 -2.723834 -1.676751
v 1.518824 -2.723834 -2.283921
v 1.779104 3.062691 -6.270062
v -1.236830 3.062691 -7.345852
v -3.191943 3.062691 -4.809966
v -0.915122 2.723834 -0.889394
v 2.157154 2.723834 -1.791783
v 0.067390 -2.723834 -3.402944
v -0.469213 3.062691 -4.732418
vt 0.548284 0.007647
vt 0.373591 0.064409
vt 0.373591 0.248091
vt 0.548284 0.304853
vt 0.656250 0.156250
vt 0.375000 0.312500
vt 0.425000 0.312500
vt 0.475000 0.312500
vt 0.525000 0.312500
vt 0.575000 0.312500
vt 0.625000 0.312500
vt 0.375000 0.688440
vt 0.425000 0.688440
vt 0.475000 0.688440
vt 0.525000 0.688440
vt 0.575000 0.688440
vt 0.625000 0.688440
vt 0.548284 0.695147
vt 0.373591 0.751909
vt 0.373591 0.935591
vt 0.548284 0.992353
vt 0.656250 0.843750
vt 0.500000 0.150000
vt 0.500000 0.837500
vn 0.320918 -0.295951 -0.899680
vn 0.320918 -0.295951 -0.899680
vn 0.320918 -0.295951 -0.899680
vn 0.320918 -0.295951 -0.899680
vn -0.750187 -0.320467 -0.578377
vn -0.750187 -0.320467 -0.578377
vn -0.750187 -0.320467 -0.578377
vn -0.750187 -0.320467 -0.578377
vn -0.850331 -0.109802 0.514666
vn -0.850331 -0.109802 0.514666
vn -0.850331 -0.109802 0.514666
vn -0.850331 -0.109802 0.514666
vn 0.279818 -0.118851 0.952668
vn 0.279818 -0.118851 0.952668
vn 0.279818 -0.118851 0.952668
vn 0.279818 -0.118851 0.952668
vn 0.995428 -0.080350 -0.051643
vn 0.995428 -0.080350 -0.051643
vn 0.995428 -0.080350 -0.051643
vn 0.995428 -0.080350 -0.051643
vn 0.000000 -1.000000 0.000000
vn 0.000000 -1.000000 0.000000
vn -0.000000 -1.000000 0.000000
vn -0.000000 -1.000000 0.000000
vn -0.000000 -1.000000 0.000000
vn 0.000000 -1.000000 0.000000
vn 0.030707 0.998519 0.044900
vn -0.000000 1.000000 0.000000
vn 0.016612 0.998220 0.057284
vn -0.001541 0.998535 0.054092
vn 0.016934 0.995818 0.089771
vn 0.034344 0.995867 0.084083
s off
g pCylinder2
usemtl initialShadingGroup
f 1/6/1 2/7/2 7/13/3 6/12/4
f 2/7/5 3/8/6 8/14/7 7/13/8
f 3/8/9 4/9/10 9/15/11 8/14/12
f 4/9/13 5/10/14 10/16/15 9/15/16
f 5/10/17 1/11/18 6/17/19 10/16/20
s 1
f 2/2/21 1/1/22 11/23/23
f 3/3/24 2/2/21 11/23/23
f 4/4/25 3/3/24 11/23/23
f 5/5/26 4/4/25 11/23/23
f 1/1/22 5/5/26 11/23/23
s 2
f 6/21/27 7/20/28 12/24/29
f 7/20/28 8/19/30 12/24/29
f 8/19/30 9/18/31 12/24/29
f 9/18/31 10/22/32 12/24/29
f 10/22/32 6/21/27 12/24/29
